<svg width="106" height="32" viewBox="0 0 106 32" fill="none" xmlns="http://www.w3.org/2000/svg">
<path d="M36.24 21.112C36.0053 21.112 35.8347 21.0373 35.728 20.888C35.6213 20.728 35.584 20.5147 35.616 20.248L37.088 10.984H33.696C33.4827 10.984 33.312 10.936 33.184 10.84C33.0667 10.744 33.008 10.616 33.008 10.456C33.008 10.2213 33.0773 10.04 33.216 9.912C33.3653 9.784 33.552 9.72 33.776 9.72H42.16C42.3733 9.72 42.5387 9.76267 42.656 9.848C42.7733 9.93333 42.832 10.0613 42.832 10.232C42.832 10.4667 42.7627 10.6533 42.624 10.792C42.496 10.92 42.3147 10.984 42.08 10.984H38.576L37.088 20.376C37.0453 20.6107 36.9547 20.792 36.816 20.92C36.688 21.048 36.496 21.112 36.24 21.112ZM41.7644 21.112C41.5297 21.112 41.359 21.0427 41.2524 20.904C41.1457 20.7547 41.1137 20.5467 41.1564 20.28L42.1804 13.8C42.223 13.5653 42.3137 13.3893 42.4524 13.272C42.591 13.1547 42.7724 13.096 42.9964 13.096C43.2204 13.096 43.3857 13.1653 43.4924 13.304C43.599 13.4427 43.631 13.6453 43.5884 13.912L43.4124 15.064H43.2364C43.4604 14.4347 43.8284 13.9493 44.3404 13.608C44.863 13.256 45.455 13.0693 46.1164 13.048C46.3724 13.0373 46.543 13.0747 46.6284 13.16C46.7137 13.2347 46.7564 13.3627 46.7564 13.544C46.7564 13.8 46.6977 13.9867 46.5804 14.104C46.4737 14.2213 46.287 14.2907 46.0204 14.312L45.6684 14.36C44.847 14.4347 44.255 14.68 43.8924 15.096C43.5404 15.512 43.3057 16.0667 43.1884 16.76L42.6124 20.408C42.5804 20.6427 42.4897 20.8187 42.3404 20.936C42.2017 21.0533 42.0097 21.112 41.7644 21.112ZM47.5921 21.112C47.3681 21.112 47.2028 21.0373 47.0961 20.888C46.9895 20.7387 46.9575 20.5307 47.0001 20.264L48.0241 13.816C48.0561 13.5707 48.1415 13.3893 48.2801 13.272C48.4295 13.1547 48.6215 13.096 48.8561 13.096C49.0801 13.096 49.2455 13.1707 49.3521 13.32C49.4588 13.4693 49.4908 13.6773 49.4481 13.944L48.4241 20.392C48.3921 20.6267 48.3068 20.808 48.1681 20.936C48.0295 21.0533 47.8375 21.112 47.5921 21.112ZM49.1441 11.4C48.8775 11.4 48.6748 11.3307 48.5361 11.192C48.3975 11.0533 48.3335 10.8613 48.3441 10.616C48.3761 10.3173 48.4828 10.0933 48.6641 9.944C48.8561 9.784 49.1068 9.704 49.4161 9.704C49.6935 9.704 49.9015 9.77333 50.0401 9.912C50.1895 10.04 50.2481 10.2267 50.2161 10.472C50.1948 10.7707 50.0935 11 49.9121 11.16C49.7308 11.32 49.4748 11.4 49.1441 11.4ZM50.941 23.992C50.717 23.992 50.5517 23.9173 50.445 23.768C50.3383 23.6187 50.301 23.4107 50.333 23.144L51.821 13.832C51.853 13.5867 51.9383 13.4053 52.077 13.288C52.2263 13.16 52.4183 13.096 52.653 13.096C52.877 13.096 53.037 13.1707 53.133 13.32C53.2397 13.4693 53.2717 13.6773 53.229 13.944L53.037 15.096L52.957 14.808C53.245 14.2533 53.6343 13.8267 54.125 13.528C54.6263 13.2187 55.2023 13.064 55.853 13.064C56.4503 13.064 56.973 13.1973 57.421 13.464C57.869 13.7307 58.2157 14.1147 58.461 14.616C58.717 15.1173 58.845 15.7147 58.845 16.408C58.845 17.272 58.6903 18.0613 58.381 18.776C58.0717 19.4907 57.6237 20.0667 57.037 20.504C56.461 20.9307 55.757 21.144 54.925 21.144C54.3063 21.144 53.757 20.9893 53.277 20.68C52.797 20.3707 52.4663 19.9067 52.285 19.288H52.413L51.773 23.304C51.7303 23.5387 51.6397 23.7093 51.501 23.816C51.373 23.9333 51.1863 23.992 50.941 23.992ZM54.733 19.992C55.2983 19.992 55.773 19.8373 56.157 19.528C56.5517 19.208 56.8503 18.7813 57.053 18.248C57.2663 17.704 57.373 17.1067 57.373 16.456C57.373 15.7307 57.1917 15.176 56.829 14.792C56.477 14.408 55.9863 14.216 55.357 14.216C54.7917 14.216 54.3117 14.376 53.917 14.696C53.5223 15.0053 53.2237 15.4267 53.021 15.96C52.8183 16.4933 52.717 17.0907 52.717 17.752C52.717 18.4773 52.893 19.032 53.245 19.416C53.6077 19.8 54.1037 19.992 54.733 19.992ZM63.9156 21.112C63.713 21.112 63.5476 21.0533 63.4196 20.936C63.3023 20.808 63.2223 20.6267 63.1796 20.392L61.2916 10.504C61.2383 10.2267 61.2756 10.008 61.4036 9.848C61.5316 9.688 61.7236 9.608 61.9796 9.608C62.1716 9.608 62.3263 9.66667 62.4436 9.784C62.5716 9.89067 62.657 10.0613 62.6996 10.296L64.3956 19.672H63.8196L68.6356 10.184C68.7316 9.98133 68.8436 9.83733 68.9716 9.752C69.1103 9.656 69.2756 9.608 69.4676 9.608C69.649 9.608 69.793 9.66667 69.8996 9.784C70.017 9.90133 70.1023 10.088 70.1556 10.344L71.8676 19.672H71.3556L76.1396 10.152C76.2356 9.97067 76.3423 9.83733 76.4596 9.752C76.577 9.656 76.7316 9.608 76.9236 9.608C77.2223 9.608 77.4196 9.704 77.5156 9.896C77.6116 10.088 77.5903 10.3173 77.4516 10.584L72.3956 20.536C72.289 20.7387 72.1663 20.888 72.0276 20.984C71.889 21.0693 71.713 21.112 71.4996 21.112C71.2863 21.112 71.1156 21.0533 70.9876 20.936C70.8703 20.808 70.7903 20.6267 70.7476 20.392L69.0676 11.496H69.4036L64.8116 20.536C64.705 20.7387 64.5823 20.888 64.4436 20.984C64.3156 21.0693 64.1396 21.112 63.9156 21.112ZM80.5708 21.144C79.8241 21.144 79.1734 21.0053 78.6188 20.728C78.0748 20.44 77.6534 20.04 77.3548 19.528C77.0561 19.0053 76.9068 18.392 76.9068 17.688C76.9068 16.8347 77.0774 16.0613 77.4188 15.368C77.7601 14.664 78.2454 14.104 78.8748 13.688C79.5041 13.272 80.2454 13.064 81.0988 13.064C81.7174 13.064 82.2348 13.176 82.6508 13.4C83.0668 13.6133 83.3974 13.9067 83.6428 14.28C83.8881 14.6427 84.0481 15.0587 84.1228 15.528C84.2081 15.9867 84.2188 16.4613 84.1548 16.952C84.1334 17.144 84.0854 17.272 84.0108 17.336C83.9361 17.4 83.8188 17.432 83.6588 17.432H78.0428L78.1708 16.504H83.2588L82.9708 16.728C83.0454 16.2373 83.0294 15.8 82.9228 15.416C82.8161 15.0213 82.6134 14.7067 82.3148 14.472C82.0161 14.2373 81.6054 14.12 81.0828 14.12C80.5281 14.12 80.0641 14.248 79.6908 14.504C79.3174 14.7493 79.0241 15.064 78.8108 15.448C78.6081 15.832 78.4748 16.2427 78.4108 16.68L78.3307 17.08C78.1921 17.9653 78.3308 18.6747 78.7468 19.208C79.1628 19.7307 79.8028 19.992 80.6668 19.992C81.0401 19.992 81.4028 19.9493 81.7548 19.864C82.1068 19.7787 82.4428 19.6347 82.7628 19.432C82.9121 19.3253 83.0454 19.2773 83.1628 19.288C83.2908 19.2987 83.3921 19.3413 83.4668 19.416C83.5414 19.4907 83.5894 19.5867 83.6108 19.704C83.6321 19.8107 83.6161 19.928 83.5628 20.056C83.5094 20.1733 83.4134 20.28 83.2748 20.376C82.9121 20.632 82.4801 20.824 81.9788 20.952C81.4881 21.08 81.0188 21.144 80.5708 21.144ZM91.0376 21.144C90.003 21.144 89.1016 20.9573 88.3336 20.584C87.5763 20.2107 86.9896 19.6613 86.5736 18.936C86.1683 18.2 85.9656 17.304 85.9656 16.248C85.9656 15.256 86.099 14.3547 86.3656 13.544C86.643 12.7333 87.0376 12.0293 87.5496 11.432C88.0723 10.8347 88.7016 10.376 89.4376 10.056C90.1736 9.736 91.011 9.576 91.9496 9.576C92.6216 9.576 93.251 9.66667 93.8376 9.848C94.435 10.0293 94.9363 10.2907 95.3416 10.632C95.5016 10.7387 95.603 10.8667 95.6456 11.016C95.6883 11.1653 95.6883 11.3093 95.6456 11.448C95.6136 11.5867 95.5443 11.704 95.4376 11.8C95.3416 11.8853 95.2243 11.9387 95.0856 11.96C94.9576 11.9707 94.8136 11.9173 94.6536 11.8C94.2696 11.48 93.843 11.2507 93.3736 11.112C92.915 10.9733 92.4136 10.904 91.8696 10.904C90.963 10.904 90.1843 11.128 89.5336 11.576C88.8936 12.0133 88.3976 12.632 88.0456 13.432C87.6936 14.2213 87.5176 15.144 87.5176 16.2C87.5176 17.4373 87.8323 18.3547 88.4616 18.952C89.1016 19.5387 90.0243 19.832 91.2296 19.832C91.731 19.832 92.195 19.7893 92.6216 19.704C93.0483 19.608 93.459 19.4907 93.8536 19.352L93.4216 20.088L94.0616 16.232H91.8696C91.6776 16.232 91.523 16.1893 91.4056 16.104C91.2883 16.008 91.2296 15.8853 91.2296 15.736C91.2296 15.5227 91.2936 15.3627 91.4216 15.256C91.5496 15.1387 91.7256 15.08 91.9496 15.08H94.7656C94.9896 15.08 95.1603 15.144 95.2776 15.272C95.395 15.4 95.4323 15.5813 95.3896 15.816L94.7336 19.912C94.7123 20.104 94.659 20.2587 94.5736 20.376C94.4883 20.4827 94.3603 20.568 94.1896 20.632C93.7736 20.792 93.283 20.9147 92.7176 21C92.1523 21.096 91.5923 21.144 91.0376 21.144ZM100.55 21.144C99.8352 21.144 99.2165 21.0053 98.6939 20.728C98.1819 20.4507 97.7872 20.056 97.5099 19.544C97.2432 19.0213 97.1099 18.408 97.1099 17.704C97.1099 17.032 97.2059 16.4133 97.3979 15.848C97.6005 15.2827 97.8885 14.792 98.2619 14.376C98.6352 13.96 99.0725 13.64 99.5739 13.416C100.086 13.1813 100.646 13.064 101.254 13.064C101.979 13.064 102.598 13.2027 103.11 13.48C103.622 13.7573 104.017 14.1573 104.294 14.68C104.571 15.192 104.71 15.8053 104.71 16.52C104.71 17.1813 104.609 17.7947 104.406 18.36C104.203 18.9253 103.915 19.416 103.542 19.832C103.179 20.248 102.742 20.5733 102.23 20.808C101.729 21.032 101.169 21.144 100.55 21.144ZM100.598 19.992C101.163 19.992 101.638 19.8373 102.022 19.528C102.417 19.208 102.715 18.7813 102.918 18.248C103.131 17.704 103.238 17.1067 103.238 16.456C103.238 15.7307 103.057 15.176 102.694 14.792C102.342 14.408 101.851 14.216 101.222 14.216C100.657 14.216 100.177 14.376 99.7819 14.696C99.3872 15.0053 99.0885 15.4267 98.8859 15.96C98.6832 16.4933 98.5819 17.0907 98.5819 17.752C98.5819 18.4773 98.7579 19.032 99.1099 19.416C99.4725 19.8 99.9685 19.992 100.598 19.992Z" fill="white"/>
<path fill-rule="evenodd" clip-rule="evenodd" d="M11 12C11 9.23858 13.2386 7 16 7C18.7614 7 21 9.23858 21 12C21 14.7614 18.7614 17 16 17C13.2386 17 11 14.7614 11 12ZM16 9C14.3431 9 13 10.3431 13 12C13 13.6569 14.3431 15 16 15C17.6569 15 19 13.6569 19 12C19 10.3431 17.6569 9 16 9Z" fill="url(#paint0_linear_4_8)"/>
<path fill-rule="evenodd" clip-rule="evenodd" d="M7.27521 10.8363C7.64023 6.40804 11.3407 3 15.784 3H16.216C20.6593 3 24.3598 6.40804 24.7248 10.8363C24.9205 13.21 24.1872 15.567 22.6796 17.4108L17.8865 23.2726C16.9115 24.4651 15.0885 24.465 14.1135 23.2726L9.32043 17.4108C7.81277 15.567 7.07955 13.21 7.27521 10.8363ZM15.784 5C12.3816 5 9.54796 7.60968 9.26845 11.0006C9.11536 12.8579 9.68906 14.7021 10.8687 16.1448L15.6618 22.0066C15.8366 22.2204 16.1634 22.2204 16.3382 22.0066L21.1313 16.1448C22.3109 14.7021 22.8846 12.8579 22.7316 11.0006C22.452 7.60968 19.6184 5 16.216 5H15.784Z" fill="url(#paint1_linear_4_8)"/>
<path d="M10.2278 21.7805C10.4748 21.2866 10.2745 20.6859 9.78055 20.4389C9.28657 20.1919 8.6859 20.3921 8.43891 20.8861L5.77224 26.2195C5.61725 26.5294 5.63381 26.8976 5.81602 27.1924C5.99822 27.4872 6.32009 27.6667 6.66667 27.6667H25.3333C25.6799 27.6667 26.0018 27.4872 26.184 27.1924C26.3662 26.8976 26.3828 26.5294 26.2278 26.2195L23.5611 20.8861C23.3141 20.3921 22.7134 20.1919 22.2195 20.4389C21.7255 20.6859 21.5253 21.2866 21.7722 21.7805L23.7153 25.6667H8.2847L10.2278 21.7805Z" fill="url(#paint2_linear_4_8)"/>
<defs>
<linearGradient id="paint0_linear_4_8" x1="16" y1="3" x2="16" y2="27.6667" gradientUnits="userSpaceOnUse">
<stop stop-color="#BCE648"/>
<stop offset="1" stop-color="#9FBD48"/>
</linearGradient>
<linearGradient id="paint1_linear_4_8" x1="16" y1="3" x2="16" y2="27.6667" gradientUnits="userSpaceOnUse">
<stop stop-color="#BCE648"/>
<stop offset="1" stop-color="#9FBD48"/>
</linearGradient>
<linearGradient id="paint2_linear_4_8" x1="16" y1="3" x2="16" y2="27.6667" gradientUnits="userSpaceOnUse">
<stop stop-color="#BCE648"/>
<stop offset="1" stop-color="#9FBD48"/>
</linearGradient>
</defs>
</svg>
